<svg xmlns="http://www.w3.org/2000/svg" width="129.939" height="51.859" viewBox="0 0 129.939 51.859">
    <defs>
        <style>
            .prefix__cls-1{fill:#6d6e70}.prefix__cls-5{fill:#32a14c;stroke:#32a14c}.prefix__cls-6{fill:#e71a2d;stroke:#e71a2d}.prefix__cls-7{fill:#003589;stroke:#003589}.prefix__cls-8{fill:#00a0e0;stroke:#00a0e0}.prefix__cls-9{fill:#d71b82;stroke:#d71b82}.prefix__cls-10{fill:#ffe836;stroke:#ffe836}
        </style>
    </defs>
    <g id="prefix__Group_506" data-name="Group 506" transform="translate(-901.426 -928.002)">
        <g id="prefix__Group_505" data-name="Group 505">
            <g id="prefix__Group_504" data-name="Group 504" transform="translate(961.598 945.635)">
                <path id="prefix__Path_2020" d="M1097.424 795.837V786.6a3.612 3.612 0 0 1 3.928-3.727c2.236 0 3.7 1.377 3.7 3.279v1.789h-1.693v-1.567a1.828 1.828 0 0 0-2.01-1.92 1.958 1.958 0 0 0-2.054 2.236v9.01a1.926 1.926 0 0 0 2.054 2.145 1.767 1.767 0 0 0 1.988-1.965v-3.61h-2.122v-1.491h3.876v5.239c0 2.054-1.4 3.454-3.727 3.454-2.364-.001-3.94-1.31-3.94-3.635z" class="prefix__cls-1" data-name="Path 2020" transform="translate(-1097.424 -782.876)"/>
                <path id="prefix__Path_2021" d="M1113.43 783.27h3.546c2.552 0 3.816 1.625 3.816 4.472 0 2.279-.835 3.747-2.145 4.174l2.3 7.454h-1.9l-2.147-7.03h-1.6v7.023h-1.876zm3.5 7.631c1.333 0 1.988-1.061 1.988-3 0-1.582-.474-3.049-2.055-3.049h-1.557v6.05z" class="prefix__cls-1" data-name="Path 2021" transform="translate(-1102.368 -782.998)"/>
                <path id="prefix__Path_2022" d="M1128.981 783.27h6.389v1.581h-4.537v5.3h3.634v1.6h-3.634v5.983h4.56v1.626h-6.41z" class="prefix__cls-1" data-name="Path 2022" transform="translate(-1107.171 -782.998)"/>
                <path id="prefix__Path_2023" d="M1144.586 792.493l-3.093-9.257h1.938l2.192 6.976 2.1-6.976h1.762l-3.049 9.3v6.818h-1.851z" class="prefix__cls-1" data-name="Path 2023" transform="translate(-1111.036 -782.987)"/>
                <path id="prefix__Path_2024" d="M1156.976 783.27h3.859c2.257 0 3.3 1.467 3.3 4.025 0 2.054-.812 3.454-2.145 3.727v.09c1.626.362 2.281 1.874 2.281 3.794 0 3.228-1.377 4.472-3.319 4.472h-3.973zm3.3 7.112c1.175 0 2.055-.859 2.055-2.89 0-1.874-.723-2.684-1.789-2.684h-1.716v5.577zm.3 7.453c1.193 0 1.829-1.062 1.829-3.049 0-2.054-.859-2.89-2.1-2.89h-1.467v5.939z" class="prefix__cls-1" data-name="Path 2024" transform="translate(-1115.818 -782.998)"/>
                <path id="prefix__Path_2025" d="M1172 795.643v-8.917a3.634 3.634 0 0 1 3.974-3.816c2.19 0 3.876 1.153 3.876 3.636v9.008a3.645 3.645 0 0 1-3.952 3.928c-2.336 0-3.898-1.264-3.898-3.839zm6.006.023v-9.12a2.055 2.055 0 0 0-4.11.067v9.053a2.057 2.057 0 1 0 4.11 0z" class="prefix__cls-1" data-name="Path 2025" transform="translate(-1120.46 -782.886)"/>
                <path id="prefix__Path_2026" d="M1189.708 791.217l-2.844-7.947h1.938l2.009 5.824 2.015-5.824h1.738l-2.822 7.811 3.026 8.286h-1.937l-2.167-6.141-2.168 6.141h-1.789z" class="prefix__cls-1" data-name="Path 2026" transform="translate(-1125.002 -782.998)"/>
            </g>
        </g>
        <path id="prefix__Path_2027" d="M1040 790.15v16.118l-13.9-6.876v-15.817z" data-name="Path 2027" transform="translate(-113.794 162.543)" style="stroke-miterlimit:10;fill:#2b2d30;stroke:#2b2d30"/>
        <path id="prefix__Path_2028" d="M1046.212 790.127v16.118l13.835-6.952V783.5z" data-name="Path 2028" transform="translate(-120.008 162.566)" style="fill:#52575a;stroke:#52575a;stroke-miterlimit:10"/>
        <path id="prefix__Path_2029" d="M1039.9 773.532l-13.809 6.94 13.9 6.575 13.835-6.626z" data-name="Path 2029" transform="translate(-113.794 165.645)" style="fill:#3f4346;stroke:#3f4346;stroke-miterlimit:10"/>
        <path id="prefix__Path_2030" d="M1066.229 783.5v15.792l11.05-5.553v-4.775z" class="prefix__cls-5" data-name="Path 2030" transform="translate(-126.191 162.566)"/>
        <path id="prefix__Path_2031" d="M1060 778.025V767.4l-3.254-1.626-10.675 5.363z" class="prefix__cls-6" data-name="Path 2031" transform="translate(-119.966 168.042)"/>
        <path id="prefix__Path_2032" d="M1021.458 783.575l-10.375 5.213v5.472l10.375 5.132z" class="prefix__cls-5" data-name="Path 2032" transform="translate(-109.157 162.543)"/>
        <path id="prefix__Path_2033" d="M1039.9 771.215l-10.487-5.186-3.323 1.692v10.435z" class="prefix__cls-7" data-name="Path 2033" transform="translate(-113.794 167.963)"/>
        <path id="prefix__Path_2034" d="M1021.458 768.477l-10.375 5.283v10.365l10.375-5.213z" class="prefix__cls-8" data-name="Path 2034" transform="translate(-109.157 167.207)"/>
        <path id="prefix__Path_2035" d="M1052.064 763.425l-10.5-5.252-10.664 5.427 10.487 5.186z" class="prefix__cls-9" data-name="Path 2035" transform="translate(-115.279 170.389)"/>
        <path id="prefix__Path_2036" d="M1077.28 784.217v-10.566l-11.05-5.526v10.627z" class="prefix__cls-10" data-name="Path 2036" transform="translate(-126.191 167.315)"/>
        <path id="prefix__Path_2037" d="M1026.095 806.461v10.378l3.476 1.738 10.427-5.24z" class="prefix__cls-6" data-name="Path 2037" transform="translate(-113.794 155.474)"/>
        <path id="prefix__Path_2038" d="M1011.083 799.035v10.323l10.375 5.187v-10.378z" class="prefix__cls-10" data-name="Path 2038" transform="translate(-109.157 157.768)"/>
        <path id="prefix__Path_2039" d="M1046.212 813.3l10.788 5.337 3.05-1.47v-10.816z" class="prefix__cls-7" data-name="Path 2039" transform="translate(-120.008 155.508)"/>
        <path id="prefix__Path_2040" d="M1031.125 821.65l10.5 5.253 10.707-5.159-10.785-5.334z" class="prefix__cls-9" data-name="Path 2040" transform="translate(-115.348 152.401)"/>
        <path id="prefix__Path_2041" d="M1066.229 814.686l11.05-5.325v-11.044l-11.05 5.553z" class="prefix__cls-8" data-name="Path 2041" transform="translate(-126.191 157.99)"/>
    </g>
</svg>
